<svg width="152" height="48" viewBox="0 0 152 48" fill="none" xmlns="http://www.w3.org/2000/svg">
<path d="M19.6275 31.577C19.6275 31.577 14.2875 26.4263 18.3769 16.9595C18.3769 16.9595 20.9138 9.57383 29.2088 7.87133C29.2088 7.87133 24.0206 6.4707 17.6963 8.8557C17.6963 8.8557 14.8181 11.6963 14.4019 13.5526C14.4019 13.5526 12.2438 17.567 14.0606 22.8695C15.8644 28.1326 18.4538 29.1788 19.1944 31.5282C19.2038 31.5582 19.2319 31.5807 19.2638 31.5807H19.6256L19.6275 31.577Z" fill="url(#paint0_linear_151_69)" stroke="url(#paint1_linear_151_69)" stroke-width="0.046875" stroke-miterlimit="10"/>
<path d="M28.9818 29.433C28.9818 29.3768 28.963 29.3187 28.9199 29.2737C28.7999 29.1424 28.6162 29.178 28.5299 29.3337C28.4193 29.5362 28.3068 29.7349 28.198 29.928C28.0499 30.1868 27.8474 30.4118 27.6037 30.5805C25.8562 31.7918 22.7437 33.1755 18.5212 31.998C18.5212 31.998 13.168 30.8843 10.3874 24.1343C10.3874 24.1343 8.96805 21.4212 9.66367 16.9512C9.66367 16.9512 6.0018 21.5674 7.43992 28.5312C7.43992 28.5312 7.97805 31.2987 8.3493 32.0074C8.72055 32.7143 14.9249 37.6043 20.1149 35.4424C20.1149 35.4424 24.208 34.4262 28.3255 30.1568C28.5974 29.9149 28.7962 29.7199 28.9162 29.598C28.9574 29.5568 28.9799 29.5024 28.9837 29.4462" fill="url(#paint2_linear_151_69)"/>
<path d="M30.0621 8.42888C27.1839 8.54325 23.2446 12.102 23.2446 12.102C19.3052 16.0789 18.9264 21.1901 18.9264 21.1901L18.7521 22.1164C18.5739 22.407 18.1502 23.1664 18.2402 23.6164C18.2402 23.6164 18.5064 23.9033 18.6658 23.2264L18.8046 22.1614C18.8196 22.1239 18.8364 22.0864 18.8533 22.0489C18.8608 22.0358 18.8683 22.0245 18.8758 22.0114L18.8721 22.0076C19.2564 21.1508 19.9989 19.947 21.4239 18.387C24.6433 14.8658 28.2789 14.1458 28.2789 14.1458C34.3389 12.2895 38.8071 15.4714 38.8071 15.4714C35.6646 10.5101 30.0583 8.427 30.0583 8.427L30.0621 8.42888Z" fill="url(#paint3_linear_151_69)"/>
<path d="M18.2007 29.8703C18.2007 29.8703 18.7519 31.7003 19.5226 32.1128C19.5226 32.1128 20.1151 32.0791 19.4794 31.2428L18.2007 29.8703Z" fill="url(#paint4_linear_151_69)"/>
<path d="M33.4255 29.7452C33.4255 29.7452 32.3362 24.5646 29.0793 21.0339C29.008 20.7658 28.7305 19.8321 28.3105 19.5752C28.3105 19.5752 27.9187 19.5752 28.3068 20.1527L29.0174 21.0096C29.2405 21.7408 31.2355 28.6521 28.0124 33.2964C28.0124 33.2964 25.3555 39.4746 16.2693 39.4052C16.2693 39.4052 23.2312 42.3414 30.8643 38.7658C30.8643 38.7658 33.9505 34.8714 33.4255 29.7452Z" fill="url(#paint5_linear_151_69)"/>
<path d="M23.8911 16.5709C25.0086 16.8278 30.6561 18.3784 34.4586 24.2303C34.4642 24.2378 34.468 24.2453 34.4755 24.2528C34.6555 24.4628 37.7305 28.1772 36.6074 35.2966C36.6074 35.2966 40.5017 31.7059 40.8974 24.0016C40.8992 23.9566 40.8899 23.9116 40.8674 23.8722C40.5749 23.3566 38.3942 19.7041 34.4005 18.3841C34.3892 18.3803 34.3799 18.3766 34.3705 18.3709C34.1417 18.2509 31.0424 16.6984 23.8517 17.0378C23.6792 17.0453 23.5555 16.8709 23.623 16.7116C23.668 16.6047 23.7824 16.5466 23.8949 16.5709H23.8911Z" fill="url(#paint6_linear_151_69)"/>
<path d="M21.6322 20.5468C21.2834 20.5168 21.0453 20.7212 21.0434 21.1112C21.0322 23.1681 21.0359 25.225 21.0378 27.2818C21.0378 27.6456 21.2497 27.8462 21.5965 27.8331C21.9378 27.82 22.069 27.595 22.0615 27.2537C22.0447 26.3893 22.0484 25.5231 22.0503 24.6587C22.0503 24.5612 21.979 24.4337 22.0147 24.415C22.9859 25.345 23.989 26.1925 24.8515 27.1656C25.4534 27.8443 26.1209 27.79 26.9122 27.7468C26.8053 27.6306 26.7397 27.5593 26.674 27.4881C25.6747 26.4437 24.6753 25.3956 23.6722 24.355C23.4978 24.1731 23.4697 24.0606 23.6834 23.8618C24.6247 22.9787 25.5397 22.0712 26.4697 21.175C26.6159 21.0343 26.779 20.9106 26.9365 20.7793L26.884 20.6368C26.5072 20.6368 26.1303 20.6387 25.7534 20.6368C25.5997 20.6368 25.4853 20.7043 25.3784 20.8056C24.2684 21.8556 23.1397 22.8868 22.0559 24.0493C22.0559 23.0462 22.0522 22.0993 22.0578 21.1525C22.0597 20.8375 22.009 20.5787 21.6303 20.5468H21.6322Z" fill="#171622"/>
<path d="M58.748 32L64.468 16.094H67.361L73.07 32H70.386L68.967 28.007H62.895L61.443 32H58.748ZM63.511 25.631H68.307L65.92 18.701L63.511 25.631ZM75.3305 32V20.626H77.8935V23.09C78.0768 22.5253 78.3372 22.045 78.6745 21.649C79.0192 21.2457 79.4225 20.9377 79.8845 20.725C80.3465 20.5123 80.8488 20.406 81.3915 20.406C81.5235 20.406 81.6518 20.4133 81.7765 20.428C81.9012 20.4427 81.9928 20.4683 82.0515 20.505V23.068C81.9708 23.0313 81.8645 23.0057 81.7325 22.991C81.6078 22.9763 81.4978 22.969 81.4025 22.969C80.8525 22.925 80.3648 22.947 79.9395 23.035C79.5215 23.123 79.1658 23.2733 78.8725 23.486C78.5865 23.6913 78.3702 23.9553 78.2235 24.278C78.0768 24.5933 78.0035 24.9637 78.0035 25.389V32H75.3305ZM90.736 22.518H88.195L88.206 29.041C88.206 29.3783 88.2427 29.6277 88.316 29.789C88.3967 29.943 88.5213 30.0457 88.69 30.097C88.866 30.141 89.1007 30.163 89.394 30.163H90.791V31.857C90.6443 31.9157 90.4207 31.967 90.12 32.011C89.8267 32.0623 89.4307 32.088 88.932 32.088C88.03 32.088 87.3297 31.9707 86.831 31.736C86.3397 31.494 85.9987 31.153 85.808 30.713C85.6173 30.273 85.522 29.7487 85.522 29.14V22.518H83.674V20.626H85.599L86.27 17.249H88.195V20.615H90.736V22.518ZM99.3619 32.22C98.7532 32.22 98.2326 32.1393 97.7999 31.978C97.3672 31.8167 97.0042 31.6077 96.7109 31.351C96.4249 31.0943 96.1939 30.8193 96.0179 30.526C95.8492 30.2253 95.7209 29.9393 95.6329 29.668L95.3249 32H93.3559V15.654H96.0399V22.287C96.1572 22.067 96.3186 21.847 96.5239 21.627C96.7366 21.407 96.9932 21.2053 97.2939 21.022C97.5946 20.8387 97.9356 20.692 98.3169 20.582C98.7056 20.4647 99.1346 20.406 99.6039 20.406C101.019 20.406 102.138 20.9083 102.959 21.913C103.78 22.9177 104.191 24.366 104.191 26.258C104.191 27.4533 104.008 28.4983 103.641 29.393C103.282 30.2877 102.743 30.9843 102.024 31.483C101.313 31.9743 100.425 32.22 99.3619 32.22ZM98.8119 30.251C99.6112 30.251 100.268 29.932 100.781 29.294C101.294 28.656 101.551 27.622 101.551 26.192C101.551 24.9453 101.309 24.003 100.825 23.365C100.341 22.7197 99.6589 22.397 98.7789 22.397C98.1482 22.397 97.6312 22.54 97.2279 22.826C96.8319 23.112 96.5349 23.5373 96.3369 24.102C96.1462 24.6667 96.0472 25.3633 96.0399 26.192C96.0399 27.644 96.2599 28.6853 96.6999 29.316C97.1472 29.9393 97.8512 30.251 98.8119 30.251ZM111.288 32.22C110.202 32.22 109.256 31.989 108.45 31.527C107.643 31.0577 107.016 30.3867 106.569 29.514C106.129 28.6413 105.909 27.5927 105.909 26.368C105.909 25.18 106.121 24.1387 106.547 23.244C106.979 22.3493 107.599 21.6527 108.406 21.154C109.212 20.6553 110.177 20.406 111.299 20.406C112.384 20.406 113.326 20.6443 114.126 21.121C114.925 21.5977 115.541 22.2797 115.974 23.167C116.414 24.0543 116.634 25.1213 116.634 26.368C116.634 27.5193 116.425 28.535 116.007 29.415C115.596 30.2877 114.991 30.9733 114.192 31.472C113.4 31.9707 112.432 32.22 111.288 32.22ZM111.299 30.185C111.915 30.185 112.421 30.0163 112.817 29.679C113.22 29.3417 113.517 28.8797 113.708 28.293C113.906 27.7063 114.005 27.039 114.005 26.291C114.005 25.5943 113.917 24.9527 113.741 24.366C113.572 23.7793 113.286 23.31 112.883 22.958C112.487 22.5987 111.959 22.419 111.299 22.419C110.675 22.419 110.158 22.584 109.748 22.914C109.344 23.2367 109.04 23.6913 108.835 24.278C108.637 24.8573 108.538 25.5283 108.538 26.291C108.538 26.9803 108.626 27.622 108.802 28.216C108.985 28.8027 109.278 29.2793 109.682 29.646C110.085 30.0053 110.624 30.185 111.299 30.185ZM122.124 32.22C121.398 32.22 120.745 32.088 120.166 31.824C119.594 31.5527 119.143 31.1677 118.813 30.669C118.49 30.163 118.329 29.5507 118.329 28.832C118.329 27.578 118.78 26.632 119.682 25.994C120.591 25.356 122.039 25.0223 124.027 24.993L125.721 24.949V24.179C125.721 23.5777 125.541 23.1083 125.182 22.771C124.83 22.4263 124.28 22.2577 123.532 22.265C122.982 22.2723 122.476 22.4043 122.014 22.661C121.559 22.9103 121.258 23.332 121.112 23.926H118.835C118.879 23.1487 119.102 22.4997 119.506 21.979C119.916 21.451 120.477 21.0587 121.189 20.802C121.9 20.538 122.721 20.406 123.653 20.406C124.738 20.406 125.622 20.549 126.304 20.835C126.986 21.121 127.488 21.5353 127.811 22.078C128.133 22.6133 128.295 23.2623 128.295 24.025V32H126.04L125.831 29.954C125.42 30.812 124.899 31.406 124.269 31.736C123.645 32.0587 122.93 32.22 122.124 32.22ZM122.993 30.405C123.323 30.405 123.649 30.3463 123.972 30.229C124.294 30.1043 124.588 29.9393 124.852 29.734C125.116 29.5213 125.325 29.2867 125.479 29.03C125.64 28.7733 125.721 28.5057 125.721 28.227V26.434L124.324 26.456C123.634 26.4633 123.033 26.5367 122.52 26.676C122.006 26.8153 121.603 27.039 121.31 27.347C121.024 27.6477 120.881 28.051 120.881 28.557C120.881 29.1363 121.082 29.591 121.486 29.921C121.889 30.2437 122.391 30.405 122.993 30.405ZM131.426 32V20.626H133.989V23.09C134.173 22.5253 134.433 22.045 134.77 21.649C135.115 21.2457 135.518 20.9377 135.98 20.725C136.442 20.5123 136.945 20.406 137.487 20.406C137.619 20.406 137.748 20.4133 137.872 20.428C137.997 20.4427 138.089 20.4683 138.147 20.505V23.068C138.067 23.0313 137.96 23.0057 137.828 22.991C137.704 22.9763 137.594 22.969 137.498 22.969C136.948 22.925 136.461 22.947 136.035 23.035C135.617 23.123 135.262 23.2733 134.968 23.486C134.682 23.6913 134.466 23.9553 134.319 24.278C134.173 24.5933 134.099 24.9637 134.099 25.389V32H131.426ZM144.232 32.22C142.729 32.22 141.548 31.703 140.69 30.669C139.832 29.635 139.403 28.1647 139.403 26.258C139.403 25.07 139.575 24.0397 139.92 23.167C140.272 22.287 140.785 21.6087 141.46 21.132C142.142 20.648 142.985 20.406 143.99 20.406C144.459 20.406 144.885 20.4647 145.266 20.582C145.655 20.692 145.999 20.8387 146.3 21.022C146.601 21.2053 146.854 21.407 147.059 21.627C147.272 21.847 147.437 22.067 147.554 22.287V15.654H150.238V32H148.258L147.961 29.668C147.873 29.9393 147.741 30.2253 147.565 30.526C147.396 30.8193 147.165 31.0943 146.872 31.351C146.586 31.6077 146.227 31.8167 145.794 31.978C145.361 32.1393 144.841 32.22 144.232 32.22ZM144.782 30.251C145.743 30.251 146.443 29.9393 146.883 29.316C147.33 28.6853 147.554 27.644 147.554 26.192C147.547 25.3633 147.444 24.6667 147.246 24.102C147.055 23.5373 146.758 23.112 146.355 22.826C145.959 22.54 145.446 22.397 144.815 22.397C144.008 22.397 143.345 22.694 142.824 23.288C142.303 23.882 142.043 24.85 142.043 26.192C142.043 27.5267 142.281 28.5387 142.758 29.228C143.235 29.91 143.909 30.251 144.782 30.251Z" fill="#262626"/>
<defs>
<linearGradient id="paint0_linear_151_69" x1="15.7969" y1="23.3045" x2="32.4488" y2="5.29133" gradientUnits="userSpaceOnUse">
<stop offset="0.23" stop-color="#8F693A"/>
<stop offset="0.52" stop-color="#71775B"/>
<stop offset="0.96" stop-color="#6C8D7C"/>
</linearGradient>
<linearGradient id="paint1_linear_151_69" x1="13.3088" y1="19.5188" x2="29.3119" y2="19.5188" gradientUnits="userSpaceOnUse">
<stop offset="0.23" stop-color="#8F693A"/>
<stop offset="0.52" stop-color="#71775B"/>
<stop offset="0.96" stop-color="#6C8D7C"/>
</linearGradient>
<linearGradient id="paint2_linear_151_69" x1="15.3224" y1="25.2162" x2="25.7755" y2="42.3349" gradientUnits="userSpaceOnUse">
<stop offset="0.13" stop-color="#E9414C"/>
<stop offset="0.19" stop-color="#E94749"/>
<stop offset="0.27" stop-color="#E95A42"/>
<stop offset="0.38" stop-color="#E97837"/>
<stop offset="0.39" stop-color="#E97E35"/>
<stop offset="0.99" stop-color="#E78A34"/>
</linearGradient>
<linearGradient id="paint3_linear_151_69" x1="18.2308" y1="16.0545" x2="38.8108" y2="16.0545" gradientUnits="userSpaceOnUse">
<stop offset="0.39" stop-color="#741D8A"/>
<stop offset="0.78" stop-color="#B93189"/>
<stop offset="0.96" stop-color="#E63646"/>
</linearGradient>
<linearGradient id="paint4_linear_151_69" x1="18.2007" y1="30.9916" x2="19.7738" y2="30.9916" gradientUnits="userSpaceOnUse">
<stop stop-color="#8F693A"/>
<stop offset="0.35" stop-color="#836E45"/>
<stop offset="0.68" stop-color="#71775B"/>
<stop offset="1" stop-color="#6C8D7C"/>
</linearGradient>
<linearGradient id="paint5_linear_151_69" x1="12.4958" y1="35.456" x2="29.2857" y2="29.3152" gradientUnits="userSpaceOnUse">
<stop stop-color="#13D2E0"/>
<stop offset="0.33" stop-color="#1EE4E7"/>
<stop offset="0.61" stop-color="#13D2E0"/>
<stop offset="1" stop-color="#11C1D7"/>
</linearGradient>
<linearGradient id="paint6_linear_151_69" x1="22.4724" y1="24.7259" x2="40.5216" y2="27.2915" gradientUnits="userSpaceOnUse">
<stop stop-color="#E9414C"/>
<stop offset="0.53" stop-color="#E85D3D"/>
<stop offset="0.81" stop-color="#E97E35"/>
<stop offset="0.99" stop-color="#E78A34"/>
</linearGradient>
</defs>
</svg>
