<svg width="128" height="128" viewBox="0 0 128 128" fill="none" xmlns="http://www.w3.org/2000/svg">
<path fill-rule="evenodd" clip-rule="evenodd" d="M87.0888 21.576L39.1536 22.1204L16.2405 61.807L38.1967 106.213L87.4658 106.432L111.9 64.1112L87.0888 21.576ZM97.8482 85.4493L109.737 64.8574L90.7343 64.7727L78.6982 85.6199L97.8482 85.4493ZM96.9777 86.957L86.602 104.928L67.5994 104.844L77.8277 87.1276L96.9777 86.957ZM76.0868 87.1431L65.8719 104.836L39.9592 104.72L49.9732 87.3756L76.0868 87.1431ZM48.6782 86.6188L38.7147 103.876L27.1293 80.4451L36.4887 64.2341L48.6782 86.6188ZM37.3676 62.7118L49.5571 85.0965L61.799 63.8929L49.4732 41.9727L49.34 41.9749L37.3676 62.7118ZM35.648 62.6904L26.3303 78.8291L17.9409 61.8618L26.8211 46.4808L35.648 62.6904ZM27.7 44.9584L36.5269 61.168L48.4657 40.4895L48.6376 40.4866L39.5808 24.3803L27.7 44.9584ZM50.8437 85.8679L76.9573 85.6354L89.0068 64.7651L63.0941 64.6497L50.8437 85.8679ZM88.7774 63.2641L63.102 63.1498L51.1778 41.944L76.0968 41.5248L88.7774 63.2641ZM75.2303 40.0393L50.3422 40.4579L40.8634 23.601L65.4787 23.3214L75.2303 40.0393ZM67.2038 23.3019L76.9499 40.0103L95.919 39.6912L86.233 23.0857L67.2038 23.3019ZM96.7855 41.1768L77.8164 41.4959L90.5184 63.2719L109.724 63.3574L96.7855 41.1768Z" fill="url(#paint0_linear_137_34208)"/>
<defs>
<linearGradient id="paint0_linear_137_34208" x1="37.87" y1="21.9544" x2="86.6173" y2="108.95" gradientUnits="userSpaceOnUse">
<stop stop-color="white"/>
<stop offset="1" stop-color="#434343"/>
</linearGradient>
</defs>
</svg>
