<svg width="129" height="128" viewBox="0 0 129 128" fill="none" xmlns="http://www.w3.org/2000/svg">
<path fill-rule="evenodd" clip-rule="evenodd" d="M64.6702 108.522L113 74.04L94.4473 19H33.5527L15 74.04L15.7 74.5394V74.7121H15.9421L64 109L64.6584 108.53L64.6665 108.533L64.6702 108.522ZM63.6766 107.094L74.4863 74.7121H18.2898L63.6766 107.094ZM16.6982 73.3675H51.7305L34.2324 21.3492L16.6982 73.3675ZM35.3657 20.3446H92.0736L46.0761 52.1845L35.3657 20.3446ZM93.6255 20.9278L65.1971 40.6062L110.929 72.2624L93.6255 20.9278ZM110.874 73.8817L65.4042 106.323L82.7356 54.404L110.874 73.8817ZM46.5284 53.5289L53.2018 73.3675H74.9351L81.5414 53.5773L63.9999 41.4349L46.5284 53.5289Z" fill="url(#paint0_radial_157_34572)"/>
<path fill-rule="evenodd" clip-rule="evenodd" d="M64.6702 108.522L113 74.04L94.4473 19H33.5527L15 74.04L15.7 74.5394V74.7121H15.9421L64 109L64.6584 108.53L64.6665 108.533L64.6702 108.522ZM63.6766 107.094L74.4863 74.7121H18.2898L63.6766 107.094ZM16.6982 73.3675H51.7305L34.2324 21.3492L16.6982 73.3675ZM35.3657 20.3446H92.0736L46.0761 52.1845L35.3657 20.3446ZM93.6255 20.9278L65.1971 40.6062L110.929 72.2624L93.6255 20.9278ZM110.874 73.8817L65.4042 106.323L82.7356 54.404L110.874 73.8817ZM46.5284 53.5289L53.2018 73.3675H74.9351L81.5414 53.5773L63.9999 41.4349L46.5284 53.5289Z" fill="url(#paint1_linear_157_34572)"/>
<defs>
<radialGradient id="paint0_radial_157_34572" cx="0" cy="0" r="1" gradientUnits="userSpaceOnUse" gradientTransform="translate(64 58.375) rotate(53.8966) scale(74.8417 81.7475)">
<stop stop-color="white"/>
<stop offset="1" stop-color="white" stop-opacity="0"/>
</radialGradient>
<linearGradient id="paint1_linear_157_34572" x1="114.394" y1="41.9615" x2="28.0471" y2="107.018" gradientUnits="userSpaceOnUse">
<stop stop-color="white"/>
<stop offset="1" stop-color="#434343"/>
</linearGradient>
</defs>
</svg>
