<svg width="129" height="128" viewBox="0 0 129 128" fill="none" xmlns="http://www.w3.org/2000/svg">
<path fill-rule="evenodd" clip-rule="evenodd" d="M32 38.5L16 13H112L96 38.5H112L96 64L112 89.5H96L112 115H16L32 89.5H16L32 64L16 38.5H32ZM62.9333 14.7H19.0857L34.019 38.5H48L62.9333 14.7ZM93.981 38.5H80L65.0667 14.7H108.914L93.981 38.5ZM92.9143 40.2L86.9905 49.6411L81.0667 40.2H92.9143ZM88 51.25L94.9333 40.2H108.914L94.9905 62.3911L88 51.25ZM85.981 51.25L79.0476 40.2H65.0667L78.9905 62.3911L85.981 51.25ZM80 64L86.9905 52.8589L93.981 64L86.9905 75.1411L80 64ZM77.981 64L64 41.7179L50.0191 64L64 86.2821L77.981 64ZM49.0095 62.3911L62.9333 40.2H48.9524L42.0191 51.25L49.0095 62.3911ZM41.0095 52.8589L48 64L41.0095 75.1411L34.019 64L41.0095 52.8589ZM40 51.25L33.0095 62.3911L19.0857 40.2H33.0667L40 51.25ZM41.0095 49.6411L35.0857 40.2H46.9333L41.0095 49.6411ZM49.0095 65.6089L62.9333 87.8H48.9524L42.0191 76.75L49.0095 65.6089ZM65.0667 87.8L78.9905 65.6089L85.981 76.75L79.0476 87.8H65.0667ZM50.0191 89.5L64 111.782L77.981 89.5H50.0191ZM64 16.2179L77.981 38.5H50.0191L64 16.2179ZM33.0095 65.6089L40 76.75L33.0667 87.8H19.0857L33.0095 65.6089ZM46.9333 87.8L41.0095 78.3589L35.0857 87.8H46.9333ZM19.0857 113.3L34.019 89.5H48L62.9333 113.3H19.0857ZM93.981 89.5L108.914 113.3H65.0667L80 89.5H93.981ZM86.9905 78.3589L92.9143 87.8H81.0667L86.9905 78.3589ZM94.9333 87.8L88 76.75L94.9905 65.6089L108.914 87.8H94.9333Z" fill="url(#paint0_radial_157_34565)"/>
<path fill-rule="evenodd" clip-rule="evenodd" d="M32 38.5L16 13H112L96 38.5H112L96 64L112 89.5H96L112 115H16L32 89.5H16L32 64L16 38.5H32ZM62.9333 14.7H19.0857L34.019 38.5H48L62.9333 14.7ZM93.981 38.5H80L65.0667 14.7H108.914L93.981 38.5ZM92.9143 40.2L86.9905 49.6411L81.0667 40.2H92.9143ZM88 51.25L94.9333 40.2H108.914L94.9905 62.3911L88 51.25ZM85.981 51.25L79.0476 40.2H65.0667L78.9905 62.3911L85.981 51.25ZM80 64L86.9905 52.8589L93.981 64L86.9905 75.1411L80 64ZM77.981 64L64 41.7179L50.0191 64L64 86.2821L77.981 64ZM49.0095 62.3911L62.9333 40.2H48.9524L42.0191 51.25L49.0095 62.3911ZM41.0095 52.8589L48 64L41.0095 75.1411L34.019 64L41.0095 52.8589ZM40 51.25L33.0095 62.3911L19.0857 40.2H33.0667L40 51.25ZM41.0095 49.6411L35.0857 40.2H46.9333L41.0095 49.6411ZM49.0095 65.6089L62.9333 87.8H48.9524L42.0191 76.75L49.0095 65.6089ZM65.0667 87.8L78.9905 65.6089L85.981 76.75L79.0476 87.8H65.0667ZM50.0191 89.5L64 111.782L77.981 89.5H50.0191ZM64 16.2179L77.981 38.5H50.0191L64 16.2179ZM33.0095 65.6089L40 76.75L33.0667 87.8H19.0857L33.0095 65.6089ZM46.9333 87.8L41.0095 78.3589L35.0857 87.8H46.9333ZM19.0857 113.3L34.019 89.5H48L62.9333 113.3H19.0857ZM93.981 89.5L108.914 113.3H65.0667L80 89.5H93.981ZM86.9905 78.3589L92.9143 87.8H81.0667L86.9905 78.3589ZM94.9333 87.8L88 76.75L94.9905 65.6089L108.914 87.8H94.9333Z" fill="url(#paint1_linear_157_34565)"/>
<defs>
<radialGradient id="paint0_radial_157_34565" cx="0" cy="0" r="1" gradientUnits="userSpaceOnUse" gradientTransform="translate(64 64) rotate(54.3785) scale(79.4703 74.3745)">
<stop stop-color="white"/>
<stop offset="1" stop-color="white" stop-opacity="0"/>
</radialGradient>
<linearGradient id="paint1_linear_157_34565" x1="113.365" y1="39.023" x2="20.2537" y2="99.6603" gradientUnits="userSpaceOnUse">
<stop stop-color="white"/>
<stop offset="1" stop-color="#434343"/>
</linearGradient>
</defs>
</svg>
