<svg width="128" height="128" viewBox="0 0 128 128" fill="none" xmlns="http://www.w3.org/2000/svg">
<path fill-rule="evenodd" clip-rule="evenodd" d="M25.0717 36.3795L48.8217 19H78.1783L101.928 36.3795L111 64.5L101.928 92.6206L78.1783 110H48.8217L25.0717 92.6206L16 64.5L25.0717 36.3795ZM63.5 23.8036L52.4764 20.196L74.5235 20.196L63.5 23.8036ZM61.5786 24.4324L49.2753 20.406L41.6714 30.9471L61.5786 24.4324ZM42.2118 32.0278L62.2099 25.4833L54.4996 36.2075L42.2118 32.0278ZM40.1143 33.1057L27.2853 50.8903L40.0609 46.7677L40.1143 33.1057ZM40.056 48.0252L27.0587 52.2193L35.0231 63.2969L40.0236 56.3419L40.056 48.0252ZM41.2176 54.6812L41.245 47.6415L47.7996 45.5264L41.2176 54.6812ZM40.0156 58.3923L35.7562 64.3166L39.9696 70.1769L40.0156 58.3923ZM41.1507 71.8196L41.2096 56.7316L49.7086 44.9103L63.3924 40.4947L77.8934 45.4271L86.3732 57.2215L86.4902 72.1239L72.603 90.919L49.5292 83.4732L41.1507 71.8196ZM39.9617 72.2051L35.0231 65.3362L27.1705 76.2582L39.9298 80.3756L39.9617 72.2051ZM41.1158 80.7583L41.1428 73.8479L47.6202 82.8572L41.1158 80.7583ZM39.9249 81.6299L26.7602 77.3818L39.8705 95.5564L39.9249 81.6299ZM41.054 96.5933L41.1109 82.0126L48.7959 84.4925L62.5548 103.63L41.054 96.5933ZM79.8342 46.0872L86.357 55.1597L86.303 48.2876L79.8342 46.0872ZM86.2931 47.0218L78.6327 44.4162L73.4742 37.2413L86.1841 33.1399L86.2931 47.0218ZM87.4938 48.6926L87.5576 56.8297L92.6043 63.849L100.527 53.1259L87.4938 48.6926ZM100.381 51.8136L87.4838 47.4268L87.3767 33.7865L100.381 51.8136ZM76.6919 43.756L65.2969 39.8801L72.2842 37.6254L76.6919 43.756ZM63.4022 39.2356L71.5513 36.606L63.6152 25.5679L55.6777 36.6082L63.4022 39.2356ZM53.7703 37.2218L48.9753 43.8911L41.2499 46.384L41.3023 32.9809L53.7703 37.2218ZM54.9484 37.6225L61.4976 39.8502L50.8844 43.275L54.9484 37.6225ZM73.7983 91.3047L86.5057 74.1063L86.6734 95.4594L73.7983 91.3047ZM87.6808 72.5159L87.8538 94.5522L100.599 76.8844L100.541 76.9267L92.5912 65.8701L87.6808 72.5159ZM87.5738 58.8914L87.6652 70.5336L91.8612 64.8547L87.5738 58.8914ZM65.0915 25.582L85.26 32.1822L72.7413 36.2219L65.0915 25.582ZM26.2591 53.1465V75.4866L34.29 64.3166L26.2591 53.1465ZM64.7704 103.523L86.1194 96.5365L73.049 92.3188L64.7704 103.523ZM71.8537 91.9331L63.6218 103.074L50.705 85.1086L71.8537 91.9331ZM93.3343 64.8644L100.741 75.1659V54.8403L93.3343 64.8644ZM39.75 31.5759L46.5629 22.1313L28.7265 35.1834L39.75 31.5759ZM28.7265 93.8166L46.5629 106.869L39.75 97.4241L28.7265 93.8166ZM38.5625 95.7779L26.2591 78.722V91.7516L38.5625 95.7779ZM25.0716 77.0758V88.7499L18.2588 67.6313L25.0716 77.0758ZM25.0716 53.959L17.4678 64.5L25.0716 75.041V53.959ZM25.0716 51.9242L18.2588 61.3687L25.0716 40.25V51.9242ZM26.2591 50.278V37.2484L38.5625 33.2221L26.2591 50.278ZM41.6714 98.0529L49.2753 108.594L61.5786 104.568L41.6714 98.0529ZM63.5 105.196L52.4764 108.804H74.5235L63.5 105.196ZM80.437 106.869L98.2736 93.8166L87.2499 97.4241L80.437 106.869ZM85.3285 98.0529L65.4214 104.568L77.7247 108.594L85.3285 98.0529ZM88.4374 95.7779L100.741 91.7516V78.722L88.4374 95.7779ZM101.928 77.0758V88.7501L108.741 67.6312L101.928 77.0758ZM108.741 61.3689L101.928 40.2499V51.9242L108.741 61.3689ZM101.928 75.041L109.532 64.5L101.928 53.959V75.041ZM100.741 50.278V37.2484L88.4374 33.2221L100.741 50.278ZM87.2499 31.5759L98.2736 35.1834L80.437 22.1312L87.2499 31.5759ZM85.3285 30.9471L65.4214 24.4324L77.7247 20.406L85.3285 30.9471Z" fill="url(#paint0_linear_157_34536)"/>
<defs>
<linearGradient id="paint0_linear_157_34536" x1="112.351" y1="42.2166" x2="26.124" y2="104.503" gradientUnits="userSpaceOnUse">
<stop stop-color="white"/>
<stop offset="1" stop-color="#434343"/>
</linearGradient>
</defs>
</svg>
